<?xml version="1.0" encoding="UTF-8"?>
<!DOCTYPE svg PUBLIC "-//W3C//DTD SVG 1.1//EN" "http://www.w3.org/Graphics/SVG/1.1/DTD/svg11.dtd">
<!-- Creator: CorelDRAW X7 -->
<svg xmlns="http://www.w3.org/2000/svg" xml:space="preserve" width="78.5728mm" height="8.7457mm" version="1.1" style="shape-rendering:geometricPrecision; text-rendering:geometricPrecision; image-rendering:optimizeQuality; fill-rule:evenodd; clip-rule:evenodd"
viewBox="0 0 7856 874"
 xmlns:xlink="http://www.w3.org/1999/xlink">
 <defs>
  <style type="text/css">
   <![CDATA[
    .fil1 {fill:#FECC0D}
    .fil0 {fill:white}
   ]]>
  </style>
 </defs>
 <g id="Layer_x0020_1">
  <metadata id="CorelCorpID_0Corel-Layer"/>
  <g id="_150217008">
   <path class="fil0" d="M2241 425c0,5 -1,8 -1,11 0,3 -1,6 -2,8 -2,2 -3,4 -4,5 -2,0 -3,1 -5,1l-213 0c-6,0 -11,-2 -15,-5 -5,-4 -7,-10 -7,-19l0 -396c0,-9 2,-15 7,-18 4,-4 9,-6 15,-6l210 0c2,0 4,1 5,2 2,1 3,2 4,4 1,2 1,5 2,8 1,3 1,7 1,11 0,5 0,8 -1,11 -1,3 -1,6 -2,8 -1,2 -2,3 -4,4 -1,1 -3,1 -5,1l-173 0 0 139 149 0c2,0 3,1 5,2 1,1 2,2 3,4 1,2 2,5 3,8 0,3 0,7 0,11 0,4 0,8 0,11 -1,3 -2,5 -3,7 -1,2 -2,3 -3,4 -2,1 -3,1 -5,1l-149 0 0 159 176 0c2,0 3,0 5,1 1,1 2,3 4,4 1,2 2,5 2,8 0,3 1,7 1,11z"/>
   <path class="fil0" d="M2686 286c0,27 -4,51 -12,72 -8,21 -19,39 -34,54 -14,14 -32,25 -53,33 -21,7 -45,11 -72,11 -24,0 -46,-3 -67,-10 -20,-7 -37,-18 -51,-32 -15,-14 -26,-31 -34,-52 -7,-20 -11,-44 -11,-72l0 -275c0,-2 0,-3 1,-5 1,-1 3,-2 5,-3 2,-1 5,-1 9,-2 4,-1 8,-1 14,-1 6,0 11,0 15,1 3,1 7,1 9,2 2,1 3,2 4,3 1,2 2,3 2,5l0 268c0,21 2,39 7,54 5,15 12,28 22,38 9,10 21,18 34,23 13,5 28,8 45,8 17,0 32,-3 46,-8 13,-5 24,-12 33,-22 10,-11 17,-23 22,-38 4,-15 7,-32 7,-52l0 -271c0,-2 0,-3 1,-5 1,-1 3,-2 5,-3 2,-1 5,-1 9,-2 4,-1 9,-1 15,-1 5,0 10,0 14,1 3,1 6,1 8,2 3,1 4,2 5,3 1,2 2,3 2,5l0 271z"/>
   <path class="fil0" d="M3115 441c0,2 -1,3 -1,5 -1,1 -2,2 -5,3 -2,1 -5,2 -9,2 -4,1 -10,1 -17,1 -6,0 -11,0 -14,-1 -4,0 -7,-1 -9,-2 -3,-1 -4,-2 -6,-4 -1,-2 -2,-4 -3,-7l-41 -105c-5,-12 -10,-23 -15,-32 -5,-10 -11,-19 -18,-26 -7,-7 -16,-13 -25,-17 -10,-4 -21,-6 -35,-6l-39 0 0 189c0,2 -1,3 -2,5 -1,1 -2,2 -4,3 -3,1 -6,2 -9,2 -4,1 -9,1 -15,1 -5,0 -10,0 -14,-1 -4,0 -7,-1 -9,-2 -2,-1 -4,-2 -5,-3 -1,-1 -1,-3 -1,-5l0 -411c0,-9 2,-15 7,-18 5,-4 10,-6 15,-6l94 0c11,0 21,1 28,1 7,1 14,1 20,2 17,3 32,8 46,14 13,6 24,15 33,24 9,10 15,21 20,34 4,13 6,27 6,42 0,15 -2,28 -6,40 -4,12 -9,22 -17,31 -7,9 -16,17 -27,24 -11,6 -22,12 -35,16 7,4 14,8 20,13 6,5 11,10 16,17 5,7 10,15 15,24 4,9 9,19 13,30l40 98c3,8 6,14 6,17 1,4 2,6 2,8zm-89 -312c0,-17 -4,-32 -12,-44 -7,-12 -20,-21 -39,-26 -6,-1 -12,-2 -19,-3 -7,-1 -17,-1 -28,-1l-50 0 0 149 57 0c16,0 29,-2 41,-5 11,-4 20,-9 28,-16 8,-7 13,-15 17,-24 3,-9 5,-19 5,-30z"/>
   <path class="fil0" d="M3580 223c0,36 -4,68 -12,97 -9,29 -21,53 -38,73 -17,21 -38,36 -63,47 -26,11 -55,16 -89,16 -34,0 -62,-5 -87,-15 -24,-10 -44,-24 -60,-43 -16,-19 -28,-42 -35,-71 -8,-28 -12,-60 -12,-96 0,-35 4,-67 13,-96 8,-28 21,-53 38,-73 16,-19 38,-35 63,-46 25,-11 55,-16 89,-16 32,0 61,5 85,15 24,10 45,24 61,43 16,19 28,42 36,70 7,27 11,59 11,95zm-62 4c0,-25 -2,-48 -7,-70 -4,-21 -12,-40 -22,-56 -10,-16 -24,-28 -41,-37 -18,-9 -39,-13 -65,-13 -25,0 -47,4 -64,14 -17,10 -32,22 -42,38 -11,16 -19,35 -24,56 -4,22 -7,44 -7,67 0,26 3,50 7,72 4,22 11,41 22,57 10,16 24,28 41,37 17,9 39,13 65,13 26,0 47,-5 65,-14 17,-10 32,-23 42,-39 11,-16 19,-35 23,-57 5,-21 7,-44 7,-68z"/>
   <path class="fil0" d="M3962 136c0,23 -3,43 -11,60 -7,18 -17,33 -31,46 -14,13 -30,22 -50,29 -20,7 -43,10 -71,10l-50 0 0 160c0,2 -1,4 -2,5 -1,1 -2,2 -4,3 -3,1 -6,2 -9,2 -4,1 -9,1 -15,1 -5,0 -10,0 -14,-1 -4,0 -7,-1 -9,-2 -2,-1 -4,-2 -5,-3 -1,-1 -1,-3 -1,-5l0 -409c0,-9 2,-16 7,-20 5,-4 10,-6 16,-6l95 0c10,0 19,1 28,1 8,1 19,3 31,6 12,2 24,7 37,14 12,8 23,17 31,27 9,11 16,23 20,37 5,13 7,29 7,45zm-61 5c0,-18 -4,-33 -11,-45 -6,-12 -15,-22 -25,-28 -10,-5 -20,-9 -30,-11 -11,-1 -22,-2 -32,-2l-54 0 0 178 53 0c18,0 33,-2 44,-7 12,-4 22,-11 30,-19 8,-8 14,-18 18,-29 4,-11 7,-24 7,-37z"/>
   <path class="fil0" d="M4316 425c0,5 -1,8 -1,11 0,3 -1,6 -2,8 -1,2 -3,4 -4,5 -2,0 -3,1 -5,1l-213 0c-6,0 -11,-2 -15,-5 -5,-4 -7,-10 -7,-19l0 -396c0,-9 2,-15 7,-18 4,-4 9,-6 15,-6l210 0c2,0 4,1 5,2 2,1 3,2 4,4 1,2 2,5 2,8 1,3 1,7 1,11 0,5 0,8 -1,11 0,3 -1,6 -2,8 -1,2 -2,3 -4,4 -1,1 -3,1 -5,1l-173 0 0 139 149 0c2,0 3,1 5,2 1,1 2,2 3,4 1,2 2,5 3,8 0,3 0,7 0,11 0,4 0,8 0,11 -1,3 -2,5 -3,7 -1,2 -2,3 -3,4 -2,1 -3,1 -5,1l-149 0 0 159 176 0c2,0 3,0 5,1 1,1 3,3 4,4 1,2 2,5 2,8 0,3 1,7 1,11z"/>
   <path class="fil0" d="M4752 429c2,5 3,9 3,12 0,3 -1,6 -3,7 -1,2 -4,3 -9,3 -4,1 -10,1 -17,1 -7,0 -12,0 -17,0 -4,-1 -7,-1 -9,-2 -2,-1 -4,-2 -5,-3 -1,-2 -2,-4 -3,-6l-38 -108 -184 0 -37 107c0,2 -1,4 -2,5 -2,2 -3,3 -5,4 -3,1 -6,2 -10,2 -4,1 -9,1 -15,1 -7,0 -12,0 -16,-1 -5,0 -8,-1 -9,-3 -2,-2 -3,-4 -3,-7 0,-3 1,-7 3,-12l149 -412c1,-3 2,-5 3,-7 2,-1 4,-3 7,-3 3,-1 6,-2 11,-2 4,-1 10,-1 17,-1 7,0 13,0 18,1 5,0 9,1 12,2 3,0 5,2 7,4 1,1 2,3 3,6l149 412zm-191 -364l0 0 -77 221 155 0 -78 -221z"/>
   <path class="fil0" d="M5178 425c0,5 -1,9 -3,12 -1,3 -3,6 -6,8 -2,2 -5,3 -8,4 -3,1 -6,2 -9,2l-20 0c-6,0 -11,-1 -16,-2 -4,-2 -9,-4 -13,-7 -4,-3 -8,-8 -12,-13 -4,-6 -9,-13 -14,-22l-135 -253c-7,-13 -14,-26 -21,-41 -8,-14 -14,-28 -21,-41l0 0c0,16 1,33 1,50 0,17 0,34 0,51l0 268c0,2 0,3 -1,5 -1,1 -3,2 -5,3 -3,1 -5,2 -9,2 -4,1 -9,1 -14,1 -6,0 -11,0 -15,-1 -4,0 -7,-1 -9,-2 -2,-1 -3,-2 -4,-3 -1,-2 -2,-3 -2,-5l0 -409c0,-9 3,-16 8,-20 5,-4 11,-6 17,-6l29 0c7,0 12,1 17,2 5,1 9,3 12,6 4,2 8,6 11,11 3,4 7,10 11,17l104 195c6,12 13,24 19,35 6,11 11,22 17,33 5,11 11,22 16,33 6,10 11,21 16,32l1 0c-1,-18 -1,-37 -1,-57 0,-19 0,-38 0,-56l0 -240c0,-2 0,-4 1,-5 1,-1 3,-2 5,-3 2,-2 5,-2 9,-3 4,0 9,0 15,0 5,0 10,0 13,0 4,1 7,1 9,3 3,1 4,2 5,3 1,1 2,3 2,5l0 408z"/>
   <path class="fil0" d="M5802 429c2,5 3,9 3,12 0,3 -1,6 -3,7 -1,2 -5,3 -9,3 -4,1 -10,1 -17,1 -7,0 -12,0 -17,0 -4,-1 -7,-1 -9,-2 -2,-1 -4,-2 -5,-3 -1,-2 -2,-4 -3,-6l-38 -108 -184 0 -37 107c0,2 -1,4 -2,5 -2,2 -3,3 -5,4 -3,1 -6,2 -10,2 -4,1 -9,1 -15,1 -7,0 -12,0 -17,-1 -4,0 -7,-1 -8,-3 -2,-2 -3,-4 -3,-7 0,-3 1,-7 3,-12l149 -412c1,-3 2,-5 3,-7 2,-1 4,-3 7,-3 3,-1 6,-2 11,-2 4,-1 10,-1 17,-1 7,0 13,0 18,1 5,0 9,1 12,2 3,0 5,2 6,4 2,1 3,3 4,6l149 412zm-191 -364l0 0 -77 221 155 0 -78 -221z"/>
   <path class="fil0" d="M6220 67c0,4 -1,8 -1,11 0,4 -1,6 -2,9 -1,2 -2,3 -4,4 -1,1 -2,2 -4,2 -3,0 -7,-3 -14,-7 -6,-4 -15,-9 -25,-14 -11,-6 -24,-11 -39,-15 -15,-4 -33,-6 -53,-6 -25,0 -47,4 -66,13 -20,9 -36,21 -49,37 -14,16 -24,34 -32,56 -7,22 -10,45 -10,71 0,28 4,53 11,75 8,22 19,41 33,56 14,15 31,27 50,34 20,8 41,12 64,12 14,0 28,-2 42,-5 14,-3 27,-8 39,-15l0 -130 -103 0c-4,0 -7,-1 -8,-5 -2,-4 -3,-10 -3,-19 0,-4 0,-8 0,-11 1,-3 1,-5 3,-7 1,-2 2,-4 3,-5 1,0 3,-1 5,-1l141 0c3,0 5,1 8,1 2,1 4,3 6,5 3,1 4,4 5,7 1,3 2,7 2,11l0 169c0,6 -1,11 -3,16 -2,4 -6,8 -13,11 -7,4 -15,7 -26,11 -10,4 -21,7 -32,10 -12,3 -23,5 -34,6 -12,2 -23,2 -34,2 -35,0 -65,-5 -92,-16 -27,-10 -50,-26 -69,-45 -18,-20 -33,-43 -42,-71 -10,-27 -15,-58 -15,-92 0,-35 5,-67 16,-95 10,-29 25,-53 45,-74 19,-20 42,-35 69,-46 27,-12 57,-17 90,-17 17,0 33,2 48,4 15,3 28,7 39,11 12,4 22,8 30,13 7,5 13,9 16,12 3,3 5,6 6,10 1,4 2,10 2,17z"/>
   <path class="fil0" d="M6607 425c0,5 0,8 -1,11 0,3 -1,6 -2,8 -1,2 -3,4 -4,5 -2,0 -3,1 -5,1l-213 0c-5,0 -10,-2 -15,-5 -5,-4 -7,-10 -7,-19l0 -396c0,-9 2,-15 7,-18 5,-4 10,-6 15,-6l210 0c2,0 4,1 5,2 2,1 3,2 4,4 1,2 2,5 2,8 1,3 1,7 1,11 0,5 0,8 -1,11 0,3 -1,6 -2,8 -1,2 -2,3 -4,4 -1,1 -3,1 -5,1l-173 0 0 139 149 0c2,0 3,1 5,2 1,1 3,2 4,4 1,2 1,5 2,8 0,3 1,7 1,11 0,4 -1,8 -1,11 -1,3 -1,5 -2,7 -1,2 -3,3 -4,4 -2,1 -3,1 -5,1l-149 0 0 159 176 0c2,0 3,0 5,1 1,1 3,3 4,4 1,2 2,5 2,8 1,3 1,7 1,11z"/>
   <path class="fil0" d="M7054 425c0,5 -1,9 -2,12 -2,3 -4,6 -6,8 -3,2 -5,3 -8,4 -4,1 -7,2 -10,2l-19 0c-6,0 -12,-1 -16,-2 -5,-2 -9,-4 -14,-7 -4,-3 -8,-8 -12,-13 -4,-6 -8,-13 -13,-22l-136 -253c-7,-13 -14,-26 -21,-41 -7,-14 -14,-28 -20,-41l-1 0c1,16 1,33 1,50 0,17 1,34 1,51l0 268c0,2 -1,3 -2,5 -1,1 -3,2 -5,3 -2,1 -5,2 -9,2 -3,1 -8,1 -14,1 -6,0 -11,0 -14,-1 -4,0 -7,-1 -9,-2 -2,-1 -4,-2 -5,-3 -1,-2 -1,-3 -1,-5l0 -409c0,-9 2,-16 7,-20 6,-4 11,-6 17,-6l29 0c7,0 13,1 18,2 4,1 8,3 12,6 4,2 7,6 11,11 3,4 7,10 10,17l104 195c7,12 13,24 19,35 6,11 12,22 17,33 6,11 11,22 17,33 5,10 10,21 16,32l0 0c0,-18 -1,-37 -1,-57 0,-19 0,-38 0,-56l0 -240c0,-2 1,-4 2,-5 1,-1 2,-2 4,-3 3,-2 6,-2 9,-3 4,0 9,0 15,0 5,0 10,0 14,0 4,1 7,1 9,3 2,1 4,2 5,3 1,1 1,3 1,5l0 408z"/>
   <path class="fil0" d="M7498 387c0,4 0,7 0,10 -1,3 -1,5 -2,7 0,2 -1,4 -2,6 -1,1 -2,3 -5,5 -2,3 -7,6 -14,11 -7,5 -16,9 -27,14 -11,4 -24,8 -38,11 -14,3 -29,5 -46,5 -29,0 -55,-5 -78,-15 -23,-9 -43,-24 -59,-42 -17,-19 -29,-42 -38,-70 -9,-27 -13,-59 -13,-95 0,-37 5,-70 14,-99 10,-28 23,-53 40,-73 17,-20 38,-35 62,-46 24,-10 50,-15 79,-15 13,0 26,1 38,3 12,3 23,6 33,9 11,4 20,8 28,13 8,5 13,9 16,12 4,3 6,5 7,7 0,1 1,3 2,5 0,2 1,5 1,8 0,3 1,6 1,11 0,4 -1,8 -1,11 -1,4 -1,6 -2,8 -1,3 -2,4 -3,5 -2,1 -3,2 -5,2 -3,0 -8,-2 -14,-7 -5,-4 -13,-9 -22,-15 -9,-5 -20,-10 -33,-14 -13,-5 -29,-7 -47,-7 -20,0 -38,4 -54,12 -16,8 -30,19 -41,35 -12,15 -21,34 -27,56 -7,22 -10,47 -10,75 0,29 3,54 9,75 7,22 15,40 27,54 11,15 25,26 42,33 16,8 35,12 56,12 17,0 33,-3 46,-7 13,-4 25,-9 34,-14 9,-6 17,-11 23,-15 6,-4 11,-7 14,-7 2,0 3,1 4,2 1,0 2,2 3,3 1,2 1,5 2,8 0,4 0,8 0,13z"/>
   <path class="fil0" d="M7726 277l0 164c0,2 0,4 -1,5 -1,1 -3,2 -5,3 -2,1 -5,2 -9,2 -4,1 -9,1 -14,1 -6,0 -11,0 -14,-1 -4,0 -7,-1 -10,-2 -2,-1 -4,-2 -4,-3 -1,-1 -2,-3 -2,-5l0 -164 -125 -250c-3,-5 -4,-9 -5,-12 -1,-3 0,-5 2,-7 1,-2 5,-3 9,-3 5,-1 10,-1 18,-1 7,0 12,0 17,1 4,0 7,1 10,2 2,1 4,2 5,3 2,2 3,4 4,6l61 127c6,13 12,25 17,38 6,14 12,27 18,41l0 0c6,-13 11,-26 17,-39 5,-13 11,-26 17,-39l61 -128c1,-2 2,-4 3,-6 1,-1 3,-2 5,-3 3,-1 6,-2 9,-2 4,-1 9,-1 15,-1 8,0 15,0 19,1 5,1 8,2 10,3 2,2 3,4 2,7 0,3 -2,7 -4,12l-126 250z"/>
   <path class="fil0" d="M2103 600c0,2 0,4 0,5 0,1 -1,2 -1,3 0,1 0,2 -1,2 0,0 -1,0 -2,0 0,0 -1,0 -3,-1 -1,0 -2,-1 -4,-1 -1,-1 -3,-1 -6,-2 -2,0 -5,-1 -7,-1 -5,0 -8,1 -11,2 -3,2 -5,4 -7,7 -2,2 -3,6 -4,11 0,4 -1,10 -1,16l0 16 33 0c1,0 2,0 3,1 0,0 1,1 1,2 1,1 1,2 1,3 1,2 1,3 1,6 0,4 -1,6 -2,8 -1,2 -2,3 -4,3l-33 0 0 130c0,1 0,2 -1,2 0,1 -1,1 -2,2 -1,0 -2,1 -4,1 -2,0 -4,0 -7,0 -2,0 -4,0 -6,0 -2,0 -3,-1 -4,-1 -1,-1 -2,-1 -3,-2 0,0 0,-1 0,-2l0 -130 -21 0c-2,0 -3,-1 -4,-3 -1,-2 -2,-4 -2,-8 0,-3 0,-4 1,-6 0,-1 0,-2 1,-3 0,-1 1,-2 1,-2 1,-1 2,-1 3,-1l21 0 0 -15c0,-11 1,-20 3,-27 2,-7 5,-14 8,-18 4,-5 9,-9 15,-11 6,-2 14,-3 22,-3 4,0 7,0 11,1 4,1 6,1 8,2 2,1 4,2 4,2 1,1 2,2 2,3 0,1 1,2 1,4 0,1 0,3 0,5z"/>
   <path class="fil0" d="M2263 734c0,12 -2,23 -5,33 -3,11 -8,19 -14,27 -6,7 -14,13 -24,17 -9,4 -20,6 -33,6 -12,0 -23,-2 -32,-5 -9,-4 -17,-9 -23,-16 -6,-7 -10,-15 -13,-25 -3,-10 -5,-21 -5,-34 0,-12 2,-23 5,-34 3,-10 8,-19 14,-26 7,-7 14,-13 24,-17 9,-4 20,-6 33,-6 12,0 23,2 32,5 9,4 17,9 23,16 6,7 10,15 13,25 3,10 5,21 5,34zm-28 2c0,-8 -1,-16 -3,-23 -1,-7 -4,-14 -7,-19 -4,-5 -8,-10 -14,-13 -6,-3 -13,-5 -22,-5 -8,0 -15,2 -21,5 -6,3 -10,7 -14,12 -4,5 -7,11 -8,19 -2,7 -3,15 -3,23 0,8 1,16 2,23 2,7 4,13 7,19 4,5 9,9 14,13 6,3 14,4 22,4 8,0 15,-1 21,-4 6,-3 11,-7 15,-12 3,-5 6,-11 8,-19 2,-7 3,-15 3,-23z"/>
   <path class="fil0" d="M2397 671c0,2 0,4 0,6 0,2 0,3 0,4 -1,1 -1,2 -2,2 0,1 -1,1 -2,1 -1,0 -2,0 -3,-1 -1,0 -3,-1 -4,-1 -2,-1 -4,-1 -6,-2 -2,0 -4,0 -6,0 -3,0 -6,0 -8,1 -3,1 -6,3 -8,6 -3,2 -6,6 -10,10 -3,4 -6,9 -10,15l0 98c0,1 0,2 -1,2 0,1 -1,1 -2,2 -1,0 -2,1 -4,1 -2,0 -4,0 -7,0 -3,0 -5,0 -7,0 -1,0 -3,-1 -4,-1 -1,-1 -2,-1 -2,-2 0,0 -1,-1 -1,-2l0 -149c0,-1 1,-1 1,-2 0,-1 1,-1 2,-2 1,0 2,0 4,-1 1,0 3,0 6,0 2,0 4,0 6,0 2,1 3,1 4,1 0,1 1,1 2,2 0,1 0,1 0,2l0 22c4,-6 8,-11 12,-15 3,-3 7,-6 10,-9 3,-2 6,-3 9,-4 3,-1 7,-1 10,-1 1,0 3,0 5,0 1,0 3,1 5,1 2,0 4,1 6,1 1,1 2,2 3,2 1,1 1,1 1,2 1,0 1,1 1,2 0,0 0,1 0,3 0,1 0,3 0,6z"/>
   <path class="fil0" d="M2650 754c0,10 -2,19 -5,27 -4,8 -9,14 -16,20 -6,5 -14,9 -23,12 -9,3 -18,4 -28,4 -8,0 -14,0 -20,-2 -6,-1 -12,-2 -17,-4 -5,-2 -9,-4 -12,-6 -3,-1 -5,-3 -7,-4 -1,-2 -2,-3 -2,-5 -1,-2 -1,-5 -1,-9 0,-2 0,-4 0,-6 0,-1 1,-2 1,-3 0,-1 1,-2 2,-2 0,-1 1,-1 2,-1 1,0 4,1 7,3 2,2 6,4 10,6 5,2 10,4 16,6 7,2 14,3 22,3 6,0 12,-1 17,-3 5,-1 9,-4 13,-7 4,-3 7,-6 9,-11 2,-4 3,-9 3,-15 0,-6 -2,-11 -5,-15 -2,-4 -6,-8 -10,-12 -5,-3 -10,-6 -16,-8 -6,-3 -12,-6 -18,-9 -6,-3 -12,-6 -17,-9 -6,-3 -11,-7 -16,-12 -4,-5 -8,-10 -11,-16 -3,-7 -4,-14 -4,-23 0,-9 2,-17 5,-24 3,-7 8,-12 13,-17 6,-5 13,-9 21,-11 8,-2 17,-4 26,-4 5,0 9,1 14,2 5,0 10,1 14,3 4,1 8,3 11,4 3,2 6,4 7,5 1,1 1,1 2,2 0,1 0,1 0,2 1,1 1,2 1,4 0,1 0,3 0,5 0,2 0,4 0,5 0,2 -1,3 -1,4 0,1 -1,2 -1,2 -1,1 -2,1 -2,1 -2,0 -3,-1 -6,-2 -3,-2 -6,-3 -10,-5 -3,-2 -8,-4 -13,-6 -5,-1 -11,-2 -17,-2 -6,0 -11,1 -16,2 -4,2 -8,4 -11,7 -2,2 -5,5 -6,9 -1,4 -2,8 -2,12 0,6 1,11 4,15 3,4 6,8 11,11 5,4 10,7 16,9 5,3 11,6 18,9 6,3 12,6 17,9 6,3 11,7 16,12 5,5 8,10 11,16 3,6 4,14 4,22z"/>
   <path class="fil0" d="M2825 733c0,13 -2,25 -4,35 -3,11 -7,19 -13,27 -5,7 -12,13 -20,16 -8,4 -17,6 -28,6 -4,0 -8,0 -12,-1 -4,-1 -7,-2 -11,-4 -3,-2 -7,-4 -10,-7 -4,-3 -8,-7 -12,-10l0 74c0,1 0,2 0,2 -1,1 -1,2 -2,2 -1,1 -3,1 -5,1 -1,0 -4,0 -6,0 -3,0 -5,0 -7,0 -2,0 -3,0 -4,-1 -1,0 -2,-1 -2,-2 -1,0 -1,-1 -1,-2l0 -208c0,-1 0,-2 1,-2 0,-1 1,-1 1,-2 2,0 3,0 4,-1 2,0 4,0 6,0 2,0 4,0 6,0 1,1 2,1 3,1 1,1 2,1 3,2 0,0 0,1 0,2l0 20c5,-4 9,-8 13,-12 4,-3 9,-6 13,-8 4,-3 8,-4 13,-5 4,-2 9,-2 14,-2 11,0 20,2 27,6 8,4 14,10 19,17 5,8 8,16 10,26 3,9 4,20 4,30zm-29 3c0,-7 0,-15 -1,-22 -2,-7 -4,-13 -6,-19 -3,-5 -7,-10 -12,-13 -4,-3 -10,-5 -17,-5 -4,0 -7,1 -11,2 -3,1 -7,2 -10,5 -4,2 -8,5 -11,9 -4,3 -8,8 -13,13l0 60c8,9 15,16 22,21 7,4 14,7 21,7 7,0 13,-2 18,-5 4,-3 8,-8 11,-13 4,-6 6,-12 7,-19 2,-7 2,-14 2,-21z"/>
   <path class="fil0" d="M2986 729c0,5 -1,8 -3,9 -2,2 -5,3 -8,3l-97 0c0,8 0,16 2,22 2,7 4,13 8,18 4,4 9,8 15,10 7,3 14,4 23,4 7,0 13,0 19,-1 5,-2 10,-3 14,-4 4,-2 8,-3 10,-4 3,-1 5,-2 6,-2 1,0 1,0 2,1 1,0 1,1 1,1 1,1 1,2 1,4 0,1 0,3 0,5 0,1 0,2 0,3 0,1 0,2 0,3 0,1 -1,2 -1,2 0,1 -1,2 -1,2 -1,1 -3,2 -6,3 -3,2 -7,3 -11,4 -5,1 -11,3 -17,4 -6,1 -13,1 -20,1 -12,0 -23,-1 -32,-5 -9,-3 -17,-8 -23,-15 -6,-7 -11,-15 -14,-25 -3,-10 -5,-22 -5,-36 0,-12 2,-24 5,-34 3,-10 8,-19 14,-26 7,-7 14,-13 23,-17 9,-3 19,-5 30,-5 11,0 21,2 29,5 9,4 15,9 21,16 5,6 9,13 11,22 3,8 4,18 4,27l0 5zm-28 -8c1,-14 -2,-25 -9,-34 -7,-8 -17,-12 -30,-12 -7,0 -12,1 -18,4 -5,2 -9,6 -12,10 -4,4 -6,9 -8,15 -2,5 -3,11 -3,17l80 0z"/>
   <path class="fil0" d="M3142 787c0,2 0,4 0,5 -1,1 -1,3 -1,4 0,1 -1,1 -1,2 0,1 -1,2 -3,3 -1,2 -3,3 -7,5 -3,2 -7,4 -11,6 -4,1 -9,3 -13,4 -5,1 -10,1 -15,1 -11,0 -21,-1 -29,-5 -8,-4 -15,-9 -21,-15 -5,-7 -9,-16 -12,-25 -3,-10 -5,-22 -5,-34 0,-15 2,-28 6,-38 3,-11 8,-19 14,-26 7,-7 14,-12 22,-15 9,-3 18,-5 28,-5 4,0 9,1 13,1 5,1 9,3 13,4 4,1 7,3 10,5 3,2 5,3 6,5 2,1 2,2 3,3 0,1 1,2 1,3 0,1 1,2 1,3 0,2 0,3 0,5 0,4 -1,7 -1,9 -1,2 -3,3 -4,3 -2,0 -4,-1 -6,-3 -2,-2 -5,-4 -8,-6 -3,-2 -7,-4 -12,-6 -5,-2 -10,-3 -17,-3 -13,0 -23,5 -30,15 -7,10 -10,25 -10,44 0,10 1,18 2,25 2,7 5,13 8,18 4,5 8,9 13,11 6,2 11,4 18,4 6,0 12,-1 17,-3 4,-2 8,-5 12,-7 3,-2 6,-5 9,-6 2,-2 4,-3 5,-3 1,0 2,0 2,0 1,1 1,1 2,3 0,1 0,2 0,4 1,1 1,3 1,5z"/>
   <path class="fil0" d="M3212 810c0,1 0,2 0,2 -1,1 -2,1 -3,2 -1,0 -2,1 -4,1 -1,0 -4,0 -6,0 -3,0 -5,0 -7,0 -2,0 -3,-1 -4,-1 -1,-1 -2,-1 -3,-2 0,0 0,-1 0,-2l0 -149c0,0 0,-1 0,-2 1,-1 2,-1 3,-2 1,0 2,0 4,0 2,-1 4,-1 7,-1 2,0 5,0 6,1 2,0 3,0 4,0 1,1 2,1 3,2 0,1 0,2 0,2l0 149zm3 -199c0,7 -1,11 -3,13 -3,3 -7,4 -14,4 -6,0 -11,-1 -13,-4 -2,-2 -4,-6 -4,-13 0,-6 2,-10 4,-13 3,-2 7,-3 14,-3 6,0 10,1 13,3 2,3 3,7 3,13z"/>
   <path class="fil0" d="M3382 810c0,2 -1,3 -2,3 -1,1 -2,1 -3,2 -2,0 -4,0 -7,0 -3,0 -5,0 -7,0 -2,-1 -3,-1 -4,-2 0,0 -1,-1 -1,-3l0 -15c-6,7 -14,13 -22,17 -8,3 -16,5 -25,5 -8,0 -15,-1 -21,-3 -7,-2 -12,-5 -16,-9 -5,-3 -8,-8 -11,-14 -2,-5 -4,-12 -4,-19 0,-8 2,-16 6,-22 3,-6 8,-11 14,-15 7,-4 15,-7 24,-9 9,-2 19,-3 31,-3l21 0 0 -12c0,-6 -1,-11 -2,-15 -2,-5 -3,-8 -6,-11 -3,-3 -6,-5 -11,-7 -4,-1 -9,-2 -15,-2 -7,0 -13,1 -19,2 -5,2 -10,4 -14,6 -4,2 -7,3 -10,5 -2,2 -4,2 -6,2 -1,0 -1,0 -2,0 -1,-1 -1,-1 -2,-2 0,-1 -1,-2 -1,-4 0,-1 0,-2 0,-4 0,-3 0,-5 0,-7 1,-1 2,-3 3,-4 2,-2 4,-3 8,-5 4,-2 8,-4 13,-6 4,-1 9,-3 15,-4 6,-1 11,-1 17,-1 11,0 20,1 27,3 8,3 14,6 18,11 5,5 8,11 10,18 3,6 4,15 4,24l0 100zm-27 -68l-24 0c-7,0 -14,1 -19,2 -6,1 -10,3 -14,6 -4,2 -6,5 -8,9 -2,3 -2,7 -2,12 0,7 2,14 7,18 5,5 12,7 20,7 8,0 14,-2 20,-6 6,-3 13,-9 20,-16l0 -32z"/>
   <path class="fil0" d="M3459 810c0,1 0,2 0,2 -1,1 -1,1 -2,2 -1,0 -3,1 -5,1 -1,0 -4,0 -6,0 -3,0 -5,0 -7,0 -2,0 -3,-1 -4,-1 -1,-1 -2,-1 -2,-2 -1,0 -1,-1 -1,-2l0 -221c0,-1 0,-1 1,-2 0,-1 1,-1 2,-2 1,0 2,0 4,-1 2,0 4,0 7,0 2,0 5,0 6,0 2,1 4,1 5,1 1,1 1,1 2,2 0,1 0,1 0,2l0 221z"/>
   <path class="fil0" d="M3778 802c0,3 0,4 -1,6 -1,1 -2,3 -3,4 -1,1 -2,1 -4,2 -1,0 -3,1 -4,1l-10 0c-3,0 -5,-1 -7,-1 -3,-1 -5,-2 -7,-4 -2,-1 -4,-3 -6,-6 -2,-3 -4,-6 -6,-11l-65 -121c-4,-7 -7,-13 -11,-20 -3,-7 -6,-14 -9,-20l-1 0c1,8 1,16 1,24 0,8 0,17 0,25l0 129c0,1 0,1 -1,2 0,1 -1,1 -2,2 -1,0 -3,1 -4,1 -2,0 -5,0 -7,0 -3,0 -5,0 -7,0 -2,0 -3,-1 -4,-1 -2,-1 -2,-1 -3,-2 0,-1 0,-1 0,-2l0 -197c0,-5 1,-8 3,-10 3,-2 5,-3 8,-3l14 0c4,0 7,1 9,1 2,1 4,2 6,3 1,1 3,3 5,5 1,2 3,5 5,9l50 94c3,5 6,11 9,16 3,6 6,11 9,17 2,5 5,10 7,15 3,5 6,10 8,16l0 0c0,-9 0,-18 0,-28 0,-9 0,-18 0,-27l0 -116c0,-1 0,-1 1,-2 0,-1 1,-1 2,-2 1,0 3,0 4,-1 2,0 4,0 7,0 3,0 5,0 7,0 2,1 3,1 4,1 1,1 2,1 3,2 0,1 0,1 0,2l0 197z"/>
   <path class="fil0" d="M3959 729c0,5 -1,8 -3,9 -3,2 -5,3 -8,3l-98 0c0,8 1,16 3,22 2,7 4,13 8,18 4,4 9,8 15,10 6,3 14,4 23,4 7,0 13,0 19,-1 5,-2 10,-3 14,-4 4,-2 7,-3 10,-4 3,-1 5,-2 6,-2 1,0 1,0 2,1 1,0 1,1 1,1 1,1 1,2 1,4 0,1 0,3 0,5 0,1 0,2 0,3 0,1 0,2 0,3 0,1 -1,2 -1,2 0,1 -1,2 -2,2 0,1 -2,2 -5,3 -3,2 -7,3 -11,4 -5,1 -11,3 -17,4 -6,1 -13,1 -20,1 -12,0 -23,-1 -32,-5 -9,-3 -17,-8 -23,-15 -6,-7 -11,-15 -14,-25 -3,-10 -5,-22 -5,-36 0,-12 2,-24 5,-34 3,-10 8,-19 14,-26 7,-7 14,-13 23,-17 9,-3 19,-5 29,-5 12,0 22,2 30,5 8,4 15,9 20,16 6,6 10,13 12,22 3,8 4,18 4,27l0 5zm-28 -8c1,-14 -2,-25 -9,-34 -7,-8 -17,-12 -30,-12 -7,0 -13,1 -18,4 -5,2 -9,6 -12,10 -4,4 -6,9 -8,15 -2,5 -3,11 -4,17l81 0z"/>
   <path class="fil0" d="M4127 729c0,5 -1,8 -3,9 -2,2 -4,3 -7,3l-98 0c0,8 1,16 3,22 1,7 4,13 8,18 4,4 9,8 15,10 6,3 14,4 23,4 7,0 13,0 18,-1 6,-2 11,-3 15,-4 4,-2 7,-3 10,-4 2,-1 4,-2 6,-2 0,0 1,0 2,1 0,0 1,1 1,1 0,1 1,2 1,4 0,1 0,3 0,5 0,1 0,2 0,3 0,1 0,2 -1,3 0,1 0,2 0,2 -1,1 -1,2 -2,2 0,1 -2,2 -5,3 -3,2 -7,3 -12,4 -5,1 -10,3 -16,4 -6,1 -13,1 -20,1 -12,0 -23,-1 -32,-5 -9,-3 -17,-8 -23,-15 -7,-7 -11,-15 -14,-25 -4,-10 -5,-22 -5,-36 0,-12 1,-24 5,-34 3,-10 8,-19 14,-26 6,-7 14,-13 23,-17 8,-3 18,-5 29,-5 12,0 22,2 30,5 8,4 15,9 20,16 5,6 9,13 12,22 2,8 3,18 3,27l0 5zm-27 -8c0,-14 -3,-25 -10,-34 -6,-8 -16,-12 -29,-12 -7,0 -13,1 -18,4 -5,2 -9,6 -13,10 -3,4 -6,9 -8,15 -2,5 -3,11 -3,17l81 0z"/>
   <path class="fil0" d="M4304 810c0,1 -1,2 -1,2 0,1 -1,2 -2,2 -1,0 -2,1 -4,1 -1,0 -3,0 -5,0 -3,0 -5,0 -6,0 -2,0 -3,-1 -4,-1 -1,0 -2,-1 -2,-2 0,0 -1,-1 -1,-2l0 -20c-8,9 -16,15 -24,20 -9,5 -18,7 -28,7 -11,0 -20,-2 -28,-6 -7,-4 -14,-10 -18,-17 -5,-8 -9,-16 -11,-26 -2,-10 -3,-20 -3,-31 0,-12 1,-24 4,-34 3,-11 7,-19 12,-27 6,-7 12,-12 20,-16 8,-4 17,-6 28,-6 9,0 17,2 24,5 7,4 14,10 21,17l0 -86c0,-1 0,-1 1,-2 0,-1 1,-1 2,-2 1,0 2,-1 4,-1 2,0 4,0 7,0 2,0 5,0 6,0 2,0 4,1 5,1 1,1 1,1 2,2 0,1 1,1 1,2l0 220zm-28 -105c-7,-9 -14,-16 -21,-21 -7,-4 -14,-7 -22,-7 -7,0 -12,2 -17,5 -5,3 -9,8 -12,13 -3,6 -5,12 -7,19 -1,6 -2,13 -2,20 0,8 1,15 2,22 1,8 3,14 6,19 3,6 7,11 11,14 5,3 11,5 18,5 4,0 7,-1 11,-2 3,-1 6,-2 10,-5 3,-2 7,-5 11,-9 4,-3 8,-8 12,-13l0 -60z"/>
   <path class="fil0" d="M4455 769c0,8 -2,15 -5,21 -3,6 -6,11 -12,15 -5,4 -11,7 -18,9 -7,2 -15,3 -24,3 -5,0 -10,0 -15,-1 -5,-1 -9,-2 -13,-3 -4,-1 -7,-3 -9,-4 -3,-1 -5,-3 -6,-4 -1,-1 -2,-2 -3,-4 0,-2 -1,-5 -1,-8 0,-2 0,-4 1,-6 0,-1 0,-2 0,-3 1,-1 1,-2 2,-2 0,0 1,-1 2,-1 1,0 3,1 5,3 3,1 6,3 9,5 3,1 8,3 12,4 5,2 10,3 17,3 4,0 8,-1 12,-2 4,-1 7,-2 10,-4 3,-2 5,-5 6,-8 2,-3 2,-6 2,-10 0,-5 -1,-8 -3,-11 -2,-3 -5,-5 -8,-8 -4,-2 -8,-4 -12,-5 -5,-2 -9,-4 -14,-6 -4,-2 -9,-4 -13,-6 -5,-2 -9,-5 -12,-9 -4,-3 -7,-7 -9,-12 -2,-5 -3,-10 -3,-17 0,-6 1,-11 3,-17 3,-5 6,-10 11,-14 4,-4 10,-7 17,-10 6,-2 14,-3 23,-3 4,0 8,0 12,1 4,0 8,1 11,2 3,1 6,3 8,4 2,1 4,2 5,3 1,1 2,2 3,2 0,1 0,2 0,3 1,0 1,1 1,3 0,1 0,2 0,4 0,2 0,3 0,5 0,1 -1,2 -1,3 0,1 -1,2 -1,2 -1,0 -2,1 -2,1 -1,0 -3,-1 -5,-2 -1,-1 -4,-3 -7,-4 -3,-2 -6,-3 -10,-4 -4,-1 -9,-2 -14,-2 -5,0 -9,1 -12,2 -4,1 -7,2 -9,4 -2,2 -4,4 -5,7 -1,3 -2,5 -2,8 0,5 1,8 3,11 3,3 5,6 9,8 3,2 8,4 12,6 5,2 9,3 14,5 4,2 9,4 14,7 4,2 8,5 12,8 3,3 6,7 8,12 2,5 4,10 4,16z"/>
   <path class="fil0" d="M4703 810c0,2 -1,3 -2,3 -1,1 -2,1 -3,2 -2,0 -4,0 -7,0 -3,0 -5,0 -7,0 -2,-1 -3,-1 -4,-2 0,0 -1,-1 -1,-3l0 -15c-6,7 -14,13 -22,17 -8,3 -16,5 -25,5 -8,0 -15,-1 -21,-3 -7,-2 -12,-5 -16,-9 -5,-3 -8,-8 -11,-14 -2,-5 -4,-12 -4,-19 0,-8 2,-16 6,-22 3,-6 8,-11 14,-15 7,-4 15,-7 24,-9 9,-2 19,-3 31,-3l21 0 0 -12c0,-6 -1,-11 -2,-15 -2,-5 -3,-8 -6,-11 -3,-3 -6,-5 -11,-7 -4,-1 -9,-2 -15,-2 -7,0 -13,1 -19,2 -5,2 -10,4 -14,6 -4,2 -7,3 -10,5 -2,2 -4,2 -6,2 -1,0 -1,0 -2,0 -1,-1 -1,-1 -2,-2 0,-1 -1,-2 -1,-4 0,-1 0,-2 0,-4 0,-3 0,-5 0,-7 1,-1 2,-3 3,-4 2,-2 4,-3 8,-5 4,-2 8,-4 13,-6 4,-1 9,-3 15,-4 6,-1 11,-1 17,-1 11,0 20,1 27,3 8,3 14,6 18,11 5,5 8,11 10,18 3,6 4,15 4,24l0 100zm-27 -68l-24 0c-7,0 -14,1 -19,2 -6,1 -10,3 -14,6 -4,2 -6,5 -8,9 -2,3 -2,7 -2,12 0,7 2,14 7,18 5,5 12,7 20,7 8,0 14,-2 20,-6 6,-3 13,-9 20,-16l0 -32z"/>
   <path class="fil0" d="M4874 810c0,1 0,2 -1,2 0,1 -1,1 -2,2 -1,0 -2,1 -4,1 -2,0 -4,0 -6,0 -3,0 -6,0 -7,0 -2,0 -3,-1 -4,-1 -1,-1 -2,-1 -3,-2 0,0 0,-1 0,-2l0 -87c0,-9 -1,-15 -2,-21 -2,-5 -3,-9 -6,-13 -3,-4 -6,-7 -10,-9 -4,-1 -8,-3 -14,-3 -6,0 -13,3 -20,8 -7,5 -14,12 -21,21l0 104c0,1 -1,2 -1,2 -1,1 -1,1 -2,2 -1,0 -3,1 -4,1 -2,0 -4,0 -7,0 -3,0 -5,0 -7,0 -2,0 -3,-1 -4,-1 -1,-1 -2,-1 -2,-2 -1,0 -1,-1 -1,-2l0 -149c0,-1 0,-1 1,-2 0,-1 1,-1 2,-2 1,0 2,0 4,-1 1,0 3,0 6,0 2,0 4,0 6,0 1,1 3,1 3,1 1,1 2,1 2,2 1,1 1,1 1,2l0 20c8,-9 17,-16 25,-21 8,-4 17,-6 25,-6 10,0 18,1 25,5 7,3 12,8 16,13 5,6 8,13 9,20 2,8 3,17 3,27l0 91z"/>
   <path class="fil0" d="M5058 810c0,1 0,2 0,2 -1,1 -1,2 -2,2 -1,0 -2,1 -4,1 -2,0 -3,0 -6,0 -2,0 -4,0 -5,0 -2,0 -3,-1 -4,-1 -1,0 -2,-1 -2,-2 -1,0 -1,-1 -1,-2l0 -20c-8,9 -16,15 -24,20 -9,5 -18,7 -28,7 -11,0 -20,-2 -28,-6 -8,-4 -14,-10 -19,-17 -4,-8 -8,-16 -10,-26 -2,-10 -3,-20 -3,-31 0,-12 1,-24 4,-34 2,-11 7,-19 12,-27 5,-7 12,-12 20,-16 8,-4 17,-6 28,-6 8,0 16,2 24,5 7,4 14,10 21,17l0 -86c0,-1 0,-1 0,-2 1,-1 2,-1 3,-2 1,0 2,-1 4,-1 2,0 4,0 6,0 3,0 5,0 7,0 2,0 3,1 4,1 1,1 2,1 3,2 0,1 0,1 0,2l0 220zm-27 -105c-7,-9 -15,-16 -21,-21 -7,-4 -14,-7 -22,-7 -7,0 -13,2 -18,5 -4,3 -8,8 -11,13 -3,6 -6,12 -7,19 -1,6 -2,13 -2,20 0,8 1,15 2,22 1,8 3,14 6,19 3,6 6,11 11,14 5,3 11,5 18,5 4,0 7,-1 10,-2 4,-1 7,-2 11,-5 3,-2 7,-5 11,-9 4,-3 8,-8 12,-13l0 -60z"/>
   <path class="fil0" d="M5251 810c0,1 0,2 -1,2 0,1 -1,1 -2,2 -1,0 -3,1 -4,1 -2,0 -5,0 -7,0 -3,0 -5,0 -7,0 -2,0 -3,-1 -5,-1 -1,-1 -1,-1 -2,-2 0,0 -1,-1 -1,-2l0 -205c0,-1 1,-2 1,-3 1,0 2,-1 3,-1 1,-1 2,-1 4,-1 2,-1 4,-1 7,-1 2,0 5,0 7,1 1,0 3,0 4,1 1,0 2,1 2,1 1,1 1,2 1,3l0 205z"/>
   <path class="fil0" d="M5440 810c0,1 -1,2 -1,2 0,1 -1,1 -2,2 -1,0 -2,1 -4,1 -2,0 -4,0 -7,0 -3,0 -5,0 -7,0 -2,0 -3,-1 -4,-1 -1,-1 -2,-1 -2,-2 0,0 -1,-1 -1,-2l0 -87c0,-9 0,-15 -2,-21 -1,-5 -3,-9 -5,-13 -3,-4 -6,-7 -10,-9 -4,-1 -9,-3 -14,-3 -7,0 -14,3 -20,8 -7,5 -14,12 -22,21l0 104c0,1 0,2 0,2 -1,1 -2,1 -3,2 -1,0 -2,1 -4,1 -2,0 -4,0 -7,0 -2,0 -4,0 -6,0 -2,0 -3,-1 -4,-1 -2,-1 -2,-1 -3,-2 0,0 0,-1 0,-2l0 -149c0,-1 0,-1 0,-2 1,-1 1,-1 2,-2 1,0 3,0 4,-1 2,0 4,0 6,0 3,0 5,0 6,0 2,1 3,1 4,1 1,1 2,1 2,2 0,1 1,1 1,2l0 20c8,-9 16,-16 25,-21 8,-4 16,-6 25,-6 10,0 18,1 25,5 6,3 12,8 16,13 4,6 7,13 9,20 2,8 3,17 3,27l0 91z"/>
   <path class="fil0" d="M5597 787c0,2 0,4 0,5 0,1 -1,3 -1,4 0,1 -1,1 -1,2 0,1 -1,2 -3,3 -1,2 -3,3 -7,5 -3,2 -7,4 -11,6 -4,1 -8,3 -13,4 -5,1 -10,1 -15,1 -11,0 -20,-1 -29,-5 -8,-4 -15,-9 -20,-15 -6,-7 -10,-16 -13,-25 -3,-10 -5,-22 -5,-34 0,-15 2,-28 6,-38 3,-11 8,-19 14,-26 7,-7 14,-12 22,-15 9,-3 18,-5 28,-5 5,0 9,1 14,1 4,1 8,3 12,4 4,1 7,3 10,5 3,2 5,3 6,5 2,1 3,2 3,3 1,1 1,2 1,3 1,1 1,2 1,3 0,2 0,3 0,5 0,4 0,7 -1,9 -1,2 -3,3 -4,3 -2,0 -4,-1 -6,-3 -2,-2 -5,-4 -8,-6 -3,-2 -7,-4 -12,-6 -5,-2 -10,-3 -16,-3 -14,0 -24,5 -31,15 -7,10 -10,25 -10,44 0,10 1,18 3,25 1,7 4,13 8,18 3,5 7,9 13,11 5,2 11,4 17,4 6,0 12,-1 17,-3 4,-2 9,-5 12,-7 4,-2 6,-5 9,-6 2,-2 4,-3 5,-3 1,0 2,0 2,0 1,1 1,1 2,3 0,1 0,2 1,4 0,1 0,3 0,5z"/>
   <path class="fil0" d="M5667 810c0,1 0,2 0,2 -1,1 -1,1 -2,2 -1,0 -3,1 -5,1 -1,0 -4,0 -6,0 -3,0 -5,0 -7,0 -2,0 -3,-1 -4,-1 -1,-1 -2,-1 -2,-2 -1,0 -1,-1 -1,-2l0 -221c0,-1 0,-1 1,-2 0,-1 1,-1 2,-2 1,0 2,0 4,-1 2,0 4,0 7,0 2,0 5,0 6,0 2,1 4,1 5,1 1,1 1,1 2,2 0,1 0,1 0,2l0 221z"/>
   <path class="fil0" d="M5845 810c0,1 0,2 0,2 -1,1 -1,1 -2,2 -1,0 -3,1 -4,1 -2,0 -4,0 -6,0 -3,0 -5,0 -6,0 -2,0 -3,-1 -4,-1 -1,-1 -2,-1 -2,-2 0,0 -1,-1 -1,-2l0 -20c-8,10 -16,17 -25,21 -8,4 -16,6 -25,6 -10,0 -18,-1 -25,-5 -7,-3 -12,-7 -16,-13 -5,-6 -8,-12 -9,-20 -2,-8 -3,-17 -3,-28l0 -90c0,-1 0,-1 0,-2 1,-1 2,-1 3,-2 1,0 2,0 4,-1 2,0 4,0 7,0 2,0 4,0 6,0 2,1 3,1 4,1 1,1 2,1 3,2 0,1 0,1 0,2l0 87c0,9 1,16 2,21 1,5 3,10 6,13 3,4 6,7 10,9 4,2 8,3 14,3 7,0 13,-3 20,-7 7,-5 14,-12 22,-22l0 -104c0,-1 0,-1 0,-2 1,-1 1,-1 3,-2 1,0 2,0 4,-1 2,0 4,0 6,0 3,0 5,0 7,0 2,1 3,1 4,1 1,1 2,1 2,2 1,1 1,1 1,2l0 149z"/>
   <path class="fil0" d="M5989 769c0,8 -1,15 -4,21 -3,6 -7,11 -12,15 -5,4 -11,7 -18,9 -7,2 -15,3 -24,3 -5,0 -10,0 -15,-1 -5,-1 -9,-2 -13,-3 -4,-1 -7,-3 -10,-4 -2,-1 -4,-3 -5,-4 -2,-1 -2,-2 -3,-4 -1,-2 -1,-5 -1,-8 0,-2 0,-4 1,-6 0,-1 0,-2 0,-3 1,-1 1,-2 2,-2 0,0 1,-1 2,-1 1,0 3,1 5,3 3,1 5,3 9,5 3,1 7,3 12,4 5,2 10,3 16,3 5,0 9,-1 13,-2 4,-1 7,-2 10,-4 3,-2 5,-5 6,-8 2,-3 2,-6 2,-10 0,-5 -1,-8 -3,-11 -2,-3 -5,-5 -8,-8 -4,-2 -8,-4 -12,-5 -5,-2 -9,-4 -14,-6 -4,-2 -9,-4 -13,-6 -5,-2 -9,-5 -12,-9 -4,-3 -7,-7 -9,-12 -2,-5 -3,-10 -3,-17 0,-6 1,-11 3,-17 3,-5 6,-10 10,-14 5,-4 11,-7 17,-10 7,-2 15,-3 24,-3 4,0 8,0 12,1 4,0 8,1 11,2 3,1 6,3 8,4 2,1 4,2 5,3 1,1 2,2 2,2 1,1 1,2 1,3 0,0 1,1 1,3 0,1 0,2 0,4 0,2 0,3 0,5 0,1 -1,2 -1,3 0,1 -1,2 -1,2 -1,0 -2,1 -2,1 -1,0 -3,-1 -5,-2 -2,-1 -4,-3 -7,-4 -3,-2 -6,-3 -10,-4 -4,-1 -9,-2 -14,-2 -5,0 -9,1 -12,2 -4,1 -7,2 -9,4 -2,2 -4,4 -5,7 -1,3 -2,5 -2,8 0,5 1,8 3,11 2,3 5,6 9,8 3,2 7,4 12,6 4,2 9,3 14,5 4,2 9,4 14,7 4,2 8,5 12,8 3,3 6,7 8,12 2,5 3,10 3,16z"/>
   <path class="fil0" d="M6056 810c0,1 0,2 -1,2 0,1 -1,1 -2,2 -1,0 -2,1 -4,1 -2,0 -4,0 -7,0 -2,0 -5,0 -6,0 -2,0 -4,-1 -5,-1 -1,-1 -1,-1 -2,-2 0,0 0,-1 0,-2l0 -149c0,0 0,-1 0,-2 1,-1 1,-1 2,-2 1,0 3,0 5,0 1,-1 4,-1 6,-1 3,0 5,0 7,1 2,0 3,0 4,0 1,1 2,1 2,2 1,1 1,2 1,2l0 149zm3 -199c0,7 -1,11 -4,13 -2,3 -6,4 -13,4 -6,0 -11,-1 -13,-4 -3,-2 -4,-6 -4,-13 0,-6 2,-10 4,-13 2,-2 7,-3 13,-3 7,0 11,1 14,3 2,3 3,7 3,13z"/>
   <path class="fil0" d="M6235 661c0,0 0,1 0,1 0,1 0,1 0,2 0,1 0,1 -1,2 0,0 0,1 0,2l-51 141c0,2 -1,3 -2,3 0,1 -1,2 -3,2 -1,1 -3,1 -5,1 -2,0 -5,0 -9,0 -3,0 -6,0 -8,0 -2,0 -4,-1 -5,-1 -2,-1 -3,-1 -3,-2 -1,-1 -2,-2 -2,-3l-51 -141c0,-1 -1,-3 -1,-4 0,-1 0,-1 0,-2 0,0 0,-1 0,-1 0,-1 0,-2 0,-2 1,-1 1,-2 3,-2 1,0 2,-1 4,-1 1,0 3,0 6,0 3,0 6,0 8,0 2,1 3,1 4,1 1,1 2,1 2,2 1,1 1,1 2,2l42 123 1 2 0 -2 41 -123c1,-1 1,-1 2,-2 0,-1 1,-1 2,-2 1,0 3,0 4,-1 2,0 5,0 8,0 2,0 4,0 6,0 1,0 3,1 4,1 1,1 1,1 2,2 0,0 0,1 0,2z"/>
   <path class="fil0" d="M6397 729c0,5 -2,8 -4,9 -2,2 -4,3 -7,3l-98 0c0,8 1,16 3,22 1,7 4,13 8,18 4,4 9,8 15,10 6,3 14,4 23,4 7,0 13,0 19,-1 5,-2 10,-3 14,-4 4,-2 7,-3 10,-4 2,-1 4,-2 6,-2 0,0 1,0 2,1 0,0 1,1 1,1 0,1 1,2 1,4 0,1 0,3 0,5 0,1 0,2 0,3 0,1 0,2 0,3 -1,1 -1,2 -1,2 -1,1 -1,2 -2,2 0,1 -2,2 -5,3 -3,2 -7,3 -12,4 -4,1 -10,3 -16,4 -6,1 -13,1 -20,1 -12,0 -23,-1 -32,-5 -9,-3 -17,-8 -23,-15 -7,-7 -11,-15 -14,-25 -4,-10 -5,-22 -5,-36 0,-12 1,-24 5,-34 3,-10 8,-19 14,-26 6,-7 14,-13 23,-17 8,-3 18,-5 29,-5 12,0 22,2 30,5 8,4 15,9 20,16 5,6 9,13 12,22 2,8 4,18 4,27l0 5zm-28 -8c0,-14 -3,-25 -9,-34 -7,-8 -17,-12 -30,-12 -7,0 -13,1 -18,4 -5,2 -9,6 -13,10 -3,4 -6,9 -8,15 -1,5 -3,11 -3,17l81 0z"/>
   <path class="fil0" d="M6658 802c0,2 0,4 -1,6 0,1 0,2 -1,3 0,1 -1,2 -2,3 0,0 -1,0 -2,0l-103 0c-2,0 -5,-1 -7,-2 -2,-2 -4,-5 -4,-9l0 -191c0,-4 2,-7 4,-9 2,-2 5,-3 7,-3l102 0c1,0 1,1 2,1 1,0 1,1 2,2 0,1 1,2 1,4 0,1 0,3 0,5 0,2 0,4 0,6 0,1 -1,2 -1,3 -1,1 -1,2 -2,2 -1,1 -1,1 -2,1l-84 0 0 67 72 0c1,0 1,0 2,1 1,0 2,1 2,2 1,1 1,2 1,3 0,2 0,4 0,6 0,2 0,4 0,5 0,2 0,3 -1,4 0,0 -1,1 -2,1 -1,1 -1,1 -2,1l-72 0 0 77 85 0c1,0 2,0 2,0 1,1 2,1 2,2 1,1 1,2 1,4 1,1 1,3 1,5z"/>
   <path class="fil0" d="M6816 810c0,1 0,2 0,2 0,1 -1,2 -2,2 -1,0 -2,1 -4,1 -1,0 -3,0 -5,0 -3,0 -5,0 -6,0 -2,0 -3,-1 -4,-1 -1,0 -2,-1 -2,-2 -1,0 -1,-1 -1,-2l0 -20c-8,9 -16,15 -24,20 -9,5 -18,7 -28,7 -11,0 -20,-2 -28,-6 -7,-4 -14,-10 -18,-17 -5,-8 -9,-16 -11,-26 -2,-10 -3,-20 -3,-31 0,-12 1,-24 4,-34 3,-11 7,-19 12,-27 5,-7 12,-12 20,-16 8,-4 17,-6 28,-6 9,0 16,2 24,5 7,4 14,10 21,17l0 -86c0,-1 0,-1 1,-2 0,-1 1,-1 2,-2 1,0 2,-1 4,-1 2,0 4,0 7,0 2,0 5,0 6,0 2,0 4,1 4,1 1,1 2,1 3,2 0,1 0,1 0,2l0 220zm-27 -105c-7,-9 -14,-16 -21,-21 -7,-4 -14,-7 -22,-7 -7,0 -13,2 -17,5 -5,3 -9,8 -12,13 -3,6 -5,12 -7,19 -1,6 -2,13 -2,20 0,8 1,15 2,22 1,8 3,14 6,19 3,6 7,11 11,14 5,3 11,5 18,5 4,0 7,-1 11,-2 3,-1 6,-2 10,-5 3,-2 7,-5 11,-9 4,-3 8,-8 12,-13l0 -60z"/>
   <path class="fil0" d="M7001 810c0,1 0,2 0,2 -1,1 -1,1 -2,2 -1,0 -3,1 -4,1 -2,0 -4,0 -6,0 -3,0 -5,0 -6,0 -2,0 -3,-1 -4,-1 -1,-1 -2,-1 -2,-2 0,0 0,-1 0,-2l0 -20c-9,10 -17,17 -26,21 -8,4 -16,6 -25,6 -10,0 -18,-1 -25,-5 -7,-3 -12,-7 -16,-13 -4,-6 -7,-12 -9,-20 -2,-8 -3,-17 -3,-28l0 -90c0,-1 0,-1 1,-2 0,-1 1,-1 2,-2 1,0 2,0 4,-1 2,0 4,0 7,0 2,0 5,0 6,0 2,1 3,1 5,1 1,1 1,1 2,2 0,1 0,1 0,2l0 87c0,9 1,16 2,21 2,5 4,10 6,13 3,4 6,7 10,9 4,2 9,3 14,3 7,0 14,-3 20,-7 7,-5 14,-12 22,-22l0 -104c0,-1 0,-1 0,-2 1,-1 2,-1 3,-2 1,0 2,0 4,-1 2,0 4,0 7,0 2,0 4,0 6,0 2,1 3,1 4,1 1,1 2,1 3,2 0,1 0,1 0,2l0 149z"/>
   <path class="fil0" d="M7166 787c0,2 0,4 0,5 0,1 -1,3 -1,4 0,1 -1,1 -1,2 0,1 -1,2 -3,3 -1,2 -3,3 -7,5 -3,2 -7,4 -11,6 -4,1 -8,3 -13,4 -5,1 -10,1 -15,1 -11,0 -20,-1 -29,-5 -8,-4 -15,-9 -20,-15 -6,-7 -10,-16 -13,-25 -3,-10 -5,-22 -5,-34 0,-15 2,-28 6,-38 3,-11 8,-19 14,-26 7,-7 14,-12 22,-15 9,-3 18,-5 28,-5 5,0 9,1 14,1 4,1 8,3 12,4 4,1 7,3 10,5 3,2 5,3 6,5 2,1 3,2 3,3 1,1 1,2 1,3 1,1 1,2 1,3 0,2 0,3 0,5 0,4 0,7 -1,9 -1,2 -3,3 -4,3 -2,0 -4,-1 -6,-3 -2,-2 -5,-4 -8,-6 -3,-2 -7,-4 -12,-6 -5,-2 -10,-3 -16,-3 -14,0 -24,5 -31,15 -7,10 -10,25 -10,44 0,10 1,18 3,25 1,7 4,13 8,18 3,5 7,9 13,11 5,2 11,4 17,4 6,0 12,-1 17,-3 5,-2 9,-5 12,-7 4,-2 6,-5 9,-6 2,-2 4,-3 5,-3 1,0 2,0 2,0 1,1 1,1 2,3 0,1 0,2 1,4 0,1 0,3 0,5z"/>
   <path class="fil0" d="M7318 810c0,2 0,3 -1,3 -1,1 -2,1 -4,2 -1,0 -3,0 -6,0 -3,0 -6,0 -7,0 -2,-1 -3,-1 -4,-2 -1,0 -1,-1 -1,-3l0 -15c-7,7 -14,13 -22,17 -8,3 -16,5 -25,5 -8,0 -15,-1 -22,-3 -6,-2 -11,-5 -16,-9 -4,-3 -8,-8 -10,-14 -3,-5 -4,-12 -4,-19 0,-8 2,-16 5,-22 4,-6 8,-11 15,-15 6,-4 14,-7 23,-9 10,-2 20,-3 32,-3l20 0 0 -12c0,-6 0,-11 -2,-15 -1,-5 -3,-8 -5,-11 -3,-3 -7,-5 -11,-7 -4,-1 -10,-2 -16,-2 -7,0 -13,1 -18,2 -5,2 -10,4 -14,6 -4,2 -7,3 -10,5 -3,2 -5,2 -6,2 -1,0 -2,0 -2,0 -1,-1 -2,-1 -2,-2 -1,-1 -1,-2 -1,-4 0,-1 0,-2 0,-4 0,-3 0,-5 0,-7 0,-1 1,-3 3,-4 1,-2 4,-3 8,-5 3,-2 7,-4 12,-6 5,-1 10,-3 16,-4 5,-1 11,-1 17,-1 10,0 19,1 27,3 7,3 13,6 18,11 5,5 8,11 10,18 2,6 3,15 3,24l0 100zm-27 -68l-23 0c-8,0 -14,1 -20,2 -5,1 -10,3 -13,6 -4,2 -7,5 -8,9 -2,3 -3,7 -3,12 0,7 3,14 7,18 5,5 12,7 21,7 7,0 14,-2 20,-6 6,-3 12,-9 19,-16l0 -32z"/>
   <path class="fil0" d="M7436 799c0,3 0,6 -1,8 0,2 -1,3 -2,4 -1,1 -2,2 -4,2 -1,1 -4,2 -6,2 -2,1 -4,1 -7,1 -2,1 -5,1 -7,1 -8,0 -15,-1 -20,-3 -6,-2 -10,-5 -14,-9 -3,-4 -6,-10 -7,-16 -2,-6 -3,-14 -3,-22l0 -87 -21 0c-1,0 -3,-1 -4,-3 -1,-2 -1,-4 -1,-8 0,-3 0,-4 0,-6 0,-1 1,-2 1,-3 1,-1 1,-2 2,-2 1,-1 1,-1 2,-1l21 0 0 -35c0,-1 0,-2 1,-2 0,-1 1,-2 2,-2 1,-1 2,-1 4,-1 2,0 4,0 7,0 3,0 5,0 7,0 1,0 3,0 4,1 1,0 1,1 2,2 0,0 1,1 1,2l0 35 37 0c1,0 2,0 3,1 0,0 1,1 1,2 1,1 1,2 2,3 0,2 0,3 0,6 0,4 -1,6 -2,8 -1,2 -2,3 -4,3l-37 0 0 83c0,10 1,18 4,23 3,5 8,8 16,8 3,0 5,-1 7,-1 2,-1 4,-1 5,-2 2,0 3,-1 4,-1 1,-1 2,-1 3,-1 1,0 1,0 2,0 0,1 1,1 1,2 0,1 0,2 1,3 0,1 0,3 0,5z"/>
   <path class="fil0" d="M7486 810c0,1 0,2 0,2 -1,1 -2,1 -3,2 -1,0 -2,1 -4,1 -1,0 -4,0 -7,0 -2,0 -4,0 -6,0 -2,0 -3,-1 -4,-1 -1,-1 -2,-1 -3,-2 0,0 0,-1 0,-2l0 -149c0,0 0,-1 0,-2 1,-1 2,-1 3,-2 1,0 2,0 4,0 2,-1 4,-1 6,-1 3,0 6,0 7,1 2,0 3,0 4,0 1,1 2,1 3,2 0,1 0,2 0,2l0 149zm3 -199c0,7 -1,11 -3,13 -3,3 -7,4 -14,4 -6,0 -11,-1 -13,-4 -2,-2 -4,-6 -4,-13 0,-6 2,-10 4,-13 3,-2 7,-3 14,-3 6,0 10,1 13,3 2,3 3,7 3,13z"/>
   <path class="fil0" d="M7675 734c0,12 -2,23 -5,33 -3,11 -8,19 -14,27 -7,7 -15,13 -24,17 -10,4 -21,6 -33,6 -12,0 -23,-2 -32,-5 -9,-4 -17,-9 -23,-16 -6,-7 -10,-15 -13,-25 -3,-10 -5,-21 -5,-34 0,-12 2,-23 5,-34 3,-10 8,-19 14,-26 6,-7 14,-13 24,-17 9,-4 20,-6 33,-6 12,0 23,2 32,5 9,4 17,9 23,16 6,7 10,15 13,25 3,10 5,21 5,34zm-29 2c0,-8 0,-16 -2,-23 -1,-7 -4,-14 -7,-19 -4,-5 -8,-10 -14,-13 -6,-3 -13,-5 -22,-5 -8,0 -15,2 -21,5 -6,3 -10,7 -14,12 -4,5 -7,11 -9,19 -1,7 -2,15 -2,23 0,8 0,16 2,23 1,7 4,13 7,19 4,5 9,9 14,13 6,3 14,4 22,4 8,0 15,-1 21,-4 6,-3 11,-7 14,-12 4,-5 7,-11 9,-19 2,-7 2,-15 2,-23z"/>
   <path class="fil0" d="M7850 810c0,1 0,2 0,2 -1,1 -2,1 -3,2 -1,0 -2,1 -4,1 -2,0 -4,0 -6,0 -3,0 -5,0 -7,0 -2,0 -3,-1 -4,-1 -1,-1 -2,-1 -3,-2 0,0 0,-1 0,-2l0 -87c0,-9 -1,-15 -2,-21 -1,-5 -3,-9 -6,-13 -2,-4 -6,-7 -10,-9 -4,-1 -8,-3 -14,-3 -6,0 -13,3 -20,8 -7,5 -14,12 -21,21l0 104c0,1 -1,2 -1,2 0,1 -1,1 -2,2 -1,0 -3,1 -4,1 -2,0 -4,0 -7,0 -3,0 -5,0 -7,0 -2,0 -3,-1 -4,-1 -1,-1 -2,-1 -2,-2 -1,0 -1,-1 -1,-2l0 -149c0,-1 0,-1 1,-2 0,-1 1,-1 2,-2 1,0 2,0 4,-1 1,0 3,0 6,0 2,0 4,0 6,0 1,1 3,1 4,1 0,1 1,1 1,2 1,1 1,1 1,2l0 20c8,-9 17,-16 25,-21 8,-4 17,-6 25,-6 10,0 18,1 25,5 7,3 12,8 17,13 4,6 7,13 8,20 2,8 3,17 3,27l0 91z"/>
   <g>
    <path id="_150220728" class="fil1" d="M761 193c374,0 686,264 761,615l-1522 0c27,-125 83,-238 162,-333l87 0 0 -90c69,-61 150,-110 239,-143l0 39 208 0 0 -86c21,-1 43,-2 65,-2l0 0zm-588 268c5,-6 11,-12 16,-18l-16 18zm19 -21c6,-6 11,-11 17,-17l-17 17zm21 -21c4,-5 9,-10 14,-14l-14 14zm18 -18c5,-4 10,-9 15,-13l-15 13zm52 153l161 0 0 161 -161 0 0 -161zm207 -313c7,-2 14,-5 21,-7l-21 7zm21 -7c12,-4 25,-8 37,-12l-37 12zm40 -13c11,-3 23,-6 34,-8l-34 8zm37 -9c9,-2 17,-4 26,-5l-26 5zm30 -6c10,-2 21,-4 31,-5l-31 5zm35 -6c14,-2 28,-3 42,-4l-42 4zm12 173l172 0 0 173 -172 0 0 -173z"/>
    <polygon id="_150220608" class="fil1" points="1134,193 1326,193 1326,2 1134,2 "/>
    <path id="_150220440" class="fil1" d="M162 475l-97 0 0 -184 184 0 0 94 -19 17 -19 19c0,0 -21,21 -21,21l-18 20 -10 13 0 0z"/>
    <polygon id="_150220320" class="fil1" points="488,73 696,73 696,195 651,200 616,206 587,212 549,222 511,234 488,242 "/>
   </g>
  </g>
 </g>
</svg>
